<svg width="18" height="18" viewBox="0 0 18 18" fill="none" xmlns="http://www.w3.org/2000/svg">
<path d="M15.7896 4.21707C14.8958 4.0268 14.1037 3.55999 13.5086 2.91066C13.5083 2.91069 13.5089 2.91063 13.5086 2.91066C12.8902 2.23473 12.484 1.36181 12.3966 0.396042V0H9.29476V12.3061C9.28923 13.7409 8.12433 14.9025 6.6884 14.9025C5.84211 14.9025 5.08985 14.4987 4.61416 13.8748C4.26901 13.4212 4.08303 12.8669 4.08303 12.2972C4.08303 10.8591 5.25014 9.69197 6.68939 9.69197C6.9571 9.69197 7.22482 9.7329 7.48036 9.81366V6.66413C7.18167 6.6232 6.87966 6.60549 6.57876 6.61213C3.48786 6.6763 1 9.20079 1 12.3061C1 13.8559 1.61951 15.2609 2.62399 16.2875C2.62707 16.2896 2.63016 16.2916 2.63324 16.2937C3.66709 17.347 5.10779 18 6.70045 18C9.84777 18 12.3988 15.4501 12.3988 12.305L12.3966 6.01918C13.6068 6.88427 15.0903 7.39315 16.6922 7.39315V4.31111C16.3891 4.31111 16.0861 4.28013 15.7896 4.21707Z" fill="#141414"/>
</svg>
