<svg width="138" height="30" viewBox="0 0 138 30" fill="none" xmlns="http://www.w3.org/2000/svg">
<path d="M44.8037 11.4473C45.1642 10.8598 45.6315 10.3992 46.2056 10.0654C46.7931 9.73164 47.4606 9.56475 48.2083 9.56475V12.5087H47.4673C46.5861 12.5087 45.9186 12.7156 45.4646 13.1295C45.024 13.5434 44.8037 14.2644 44.8037 15.2924V20.8198H42V9.72497H44.8037V11.4473Z" fill="#141414"/>
<path d="M60.2803 15.032C60.2803 15.4326 60.2536 15.7931 60.2002 16.1135H52.0894C52.1561 16.9146 52.4365 17.5421 52.9305 17.996C53.4245 18.4499 54.032 18.6769 54.7529 18.6769C55.7943 18.6769 56.5353 18.2296 56.9759 17.3351H59.9999C59.6795 18.4032 59.0654 19.2844 58.1575 19.9786C57.2496 20.6595 56.1348 21 54.813 21C53.7449 21 52.7836 20.7664 51.9292 20.2991C51.0881 19.8184 50.4272 19.1442 49.9465 18.2764C49.4792 17.4085 49.2456 16.4072 49.2456 15.2724C49.2456 14.1242 49.4792 13.1162 49.9465 12.2483C50.4138 11.3805 51.068 10.713 51.9091 10.2457C52.7503 9.77837 53.7182 9.54473 54.813 9.54473C55.8678 9.54473 56.809 9.77169 57.6368 10.2256C58.4779 10.6796 59.1254 11.3271 59.5794 12.1682C60.0467 12.996 60.2803 13.9506 60.2803 15.032ZM57.3764 14.231C57.3631 13.51 57.1027 12.9359 56.5954 12.5087C56.0881 12.0681 55.4672 11.8478 54.7329 11.8478C54.0387 11.8478 53.4512 12.0614 52.9706 12.4887C52.5033 12.9025 52.2162 13.4833 52.1094 14.231H57.3764Z" fill="#141414"/>
<path d="M66.8228 18.2363L69.6265 9.72497H72.6105L68.505 20.8198H65.1005L61.015 9.72497H64.019L66.8228 18.2363Z" fill="#141414"/>
<path d="M84.3688 15.032C84.3688 15.4326 84.3421 15.7931 84.2887 16.1135H76.1779C76.2447 16.9146 76.525 17.5421 77.019 17.996C77.513 18.4499 78.1205 18.6769 78.8415 18.6769C79.8828 18.6769 80.6238 18.2296 81.0644 17.3351H84.0885C83.768 18.4032 83.1539 19.2844 82.246 19.9786C81.3381 20.6595 80.2233 21 78.9015 21C77.8335 21 76.8722 20.7664 76.0177 20.2991C75.1766 19.8184 74.5157 19.1442 74.0351 18.2764C73.5678 17.4085 73.3341 16.4072 73.3341 15.2724C73.3341 14.1242 73.5678 13.1162 74.0351 12.2483C74.5023 11.3805 75.1565 10.713 75.9977 10.2457C76.8388 9.77837 77.8068 9.54473 78.9015 9.54473C79.9563 9.54473 80.8975 9.77169 81.7253 10.2256C82.5664 10.6796 83.214 11.3271 83.6679 12.1682C84.1352 12.996 84.3688 13.9506 84.3688 15.032ZM81.465 14.231C81.4516 13.51 81.1913 12.9359 80.6839 12.5087C80.1766 12.0681 79.5557 11.8478 78.8214 11.8478C78.1272 11.8478 77.5397 12.0614 77.0591 12.4887C76.5918 12.9025 76.3047 13.4833 76.1979 14.231H81.465Z" fill="#141414"/>
<path d="M85.5642 15.2323C85.5642 14.1108 85.7845 13.1162 86.2251 12.2483C86.679 11.3805 87.2865 10.713 88.0475 10.2457C88.8218 9.77837 89.683 9.54473 90.6309 9.54473C91.4587 9.54473 92.1797 9.71161 92.7938 10.0454C93.4213 10.3792 93.922 10.7997 94.2958 11.3071V9.72497H97.1196V20.8198H94.2958V19.1976C93.9353 19.7183 93.4347 20.1522 92.7938 20.4993C92.1663 20.8331 91.4387 21 90.6109 21C89.6763 21 88.8218 20.7597 88.0475 20.279C87.2865 19.7984 86.679 19.1242 86.2251 18.2563C85.7845 17.3752 85.5642 16.3672 85.5642 15.2323ZM94.2958 15.2724C94.2958 14.5915 94.1623 14.0107 93.8953 13.53C93.6283 13.036 93.2678 12.6622 92.8138 12.4085C92.3599 12.1415 91.8726 12.008 91.3519 12.008C90.8312 12.008 90.3506 12.1348 89.91 12.3885C89.4694 12.6422 89.1089 13.016 88.8285 13.51C88.5615 13.9907 88.428 14.5648 88.428 15.2323C88.428 15.8999 88.5615 16.4873 88.8285 16.9947C89.1089 17.4887 89.4694 17.8692 89.91 18.1362C90.3639 18.4032 90.8445 18.5367 91.3519 18.5367C91.8726 18.5367 92.3599 18.4099 92.8138 18.1562C93.2678 17.8892 93.6283 17.5154 93.8953 17.0347C94.1623 16.5407 94.2958 15.9533 94.2958 15.2724Z" fill="#141414"/>
<path d="M102.531 6V20.8198H99.7277V6H102.531Z" fill="#141414"/>
<path d="M107.975 11.3471C108.336 10.8131 108.83 10.3792 109.457 10.0454C110.098 9.71161 110.826 9.54473 111.64 9.54473C112.588 9.54473 113.442 9.77837 114.203 10.2457C114.978 10.713 115.585 11.3805 116.026 12.2483C116.48 13.1028 116.707 14.0975 116.707 15.2323C116.707 16.3672 116.48 17.3752 116.026 18.2563C115.585 19.1242 114.978 19.7984 114.203 20.279C113.442 20.7597 112.588 21 111.64 21C110.812 21 110.085 20.8398 109.457 20.5194C108.843 20.1856 108.349 19.7583 107.975 19.2376V20.8198H105.171V6H107.975V11.3471ZM113.843 15.2323C113.843 14.5648 113.703 13.9907 113.422 13.51C113.155 13.016 112.795 12.6422 112.341 12.3885C111.9 12.1348 111.42 12.008 110.899 12.008C110.392 12.008 109.911 12.1415 109.457 12.4085C109.017 12.6622 108.656 13.036 108.376 13.53C108.109 14.024 107.975 14.6048 107.975 15.2724C107.975 15.9399 108.109 16.5207 108.376 17.0147C108.656 17.5087 109.017 17.8892 109.457 18.1562C109.911 18.4099 110.392 18.5367 110.899 18.5367C111.42 18.5367 111.9 18.4032 112.341 18.1362C112.795 17.8692 113.155 17.4887 113.422 16.9947C113.703 16.5007 113.843 15.9132 113.843 15.2323Z" fill="#141414"/>
<path d="M123.541 21C122.472 21 121.511 20.7664 120.657 20.2991C119.802 19.8184 119.128 19.1442 118.634 18.2764C118.153 17.4085 117.913 16.4072 117.913 15.2724C117.913 14.1375 118.16 13.1362 118.654 12.2684C119.161 11.4005 119.849 10.733 120.717 10.2657C121.585 9.78505 122.553 9.54473 123.621 9.54473C124.689 9.54473 125.657 9.78505 126.525 10.2657C127.392 10.733 128.073 11.4005 128.567 12.2684C129.075 13.1362 129.328 14.1375 129.328 15.2724C129.328 16.4072 129.068 17.4085 128.547 18.2764C128.04 19.1442 127.346 19.8184 126.464 20.2991C125.597 20.7664 124.622 21 123.541 21ZM123.541 18.5567C124.048 18.5567 124.522 18.4366 124.962 18.1963C125.416 17.9426 125.777 17.5688 126.044 17.0748C126.311 16.5808 126.444 15.98 126.444 15.2724C126.444 14.2176 126.164 13.4099 125.603 12.8491C125.056 12.275 124.382 11.988 123.581 11.988C122.78 11.988 122.105 12.275 121.558 12.8491C121.024 13.4099 120.757 14.2176 120.757 15.2724C120.757 16.3271 121.017 17.1415 121.538 17.7156C122.072 18.2764 122.74 18.5567 123.541 18.5567Z" fill="#141414"/>
<path d="M134.519 12.028V17.3952C134.519 17.769 134.606 18.0427 134.779 18.2163C134.966 18.3765 135.273 18.4566 135.701 18.4566H137.002V20.8198H135.24C132.877 20.8198 131.695 19.6716 131.695 17.3752V12.028H130.374V9.72497H131.695V6.98131H134.519V9.72497H137.002V12.028H134.519Z" fill="#141414"/>
<rect width="30" height="30" rx="8" fill="#141414"/>
<path d="M14.1161 23.4727C13.628 22.9846 13.628 22.1931 14.1161 21.705L22.955 12.8661C23.4431 12.378 24.2346 12.378 24.7227 12.8661C25.2109 13.3543 25.2109 14.1457 24.7227 14.6339L15.8839 23.4727C15.3957 23.9609 14.6043 23.9609 14.1161 23.4727Z" fill="white"/>
<path d="M11.1161 20.4727C10.628 19.9846 10.628 19.1931 11.1161 18.705L19.955 9.86612C20.4431 9.37796 21.2346 9.37796 21.7227 9.86612C22.2109 10.3543 22.2109 11.1457 21.7227 11.6339L12.8839 20.4727C12.3957 20.9609 11.6043 20.9609 11.1161 20.4727Z" fill="white"/>
<path d="M8.11612 17.4727C7.62796 16.9846 7.62796 16.1931 8.11612 15.705L16.955 6.86612C17.4431 6.37796 18.2346 6.37796 18.7227 6.86612C19.2109 7.35427 19.2109 8.14573 18.7227 8.63388L9.88388 17.4727C9.39573 17.9609 8.60427 17.9609 8.11612 17.4727Z" fill="white"/>
<path d="M15.8829 23.4727C16.371 22.9846 16.371 22.1931 15.8829 21.705L7.04404 12.8661C6.55588 12.378 5.76443 12.378 5.27627 12.8661C4.78812 13.3543 4.78812 14.1457 5.27627 14.6339L14.1151 23.4727C14.6033 23.9609 15.3947 23.9609 15.8829 23.4727Z" fill="white"/>
<path d="M18.8829 20.4727C19.371 19.9846 19.371 19.1931 18.8829 18.705L10.044 9.86612C9.55588 9.37796 8.76443 9.37796 8.27627 9.86612C7.78812 10.3543 7.78812 11.1457 8.27627 11.6339L17.1151 20.4727C17.6033 20.9609 18.3947 20.9609 18.8829 20.4727Z" fill="white"/>
<path d="M21.8829 17.4727C22.371 16.9846 22.371 16.1931 21.8829 15.705L13.044 6.86612C12.5559 6.37796 11.7644 6.37796 11.2763 6.86612C10.7881 7.35427 10.7881 8.14573 11.2763 8.63388L20.1151 17.4727C20.6033 17.9609 21.3947 17.9609 21.8829 17.4727Z" fill="white"/>
</svg>
